# xmcd
#
# Track frame offsets: 
#        150
#        34871
#        57934
#        76776
#        94257
#        109175
#        127811
#        148425
#        165787
#
# Disc length: 2491 seconds
#
# Revision: 0
# Processed by: cddbd v1.5.2PL0 Copyright (c) Steve Scherf et al.
# Submitted via: ExactAudioCopy v1.0b2
#
DISCID=6e09b909
DTITLE=JJ Cale - High Sierra Music Festival - Disk 1\\2
DYEAR=1993
DGENRE=
TTITLE0=1993-07-04d1t01-Intro - Ride Me High - JJCale
TTITLE1=1993-07-04d1t02-Call Me The Breeze - JJCale
TTITLE2=1993-07-04d1t03-Hard Times - JJCale
TTITLE3=1993-07-04d1t04-River Boat Song - JJCale
TTITLE4=1993-07-04d1t05-Take Your Hands Off Her - JJCale
TTITLE5=1993-07-04d1t06-Tijuana - JJCale
TTITLE6=1993-07-04d1t07-Humdinger - JJCale
TTITLE7=1993-07-04d1t08-Cajun Moon - JJCale
TTITLE8=1993-07-04d1t09-After Midnight - JJCale
EXTD=
EXTT0=
EXTT1=
EXTT2=
EXTT3=
EXTT4=
EXTT5=
EXTT6=
EXTT7=
EXTT8=
PLAYORDER=
